<svg xmlns="http://www.w3.org/2000/svg" viewBox="0 0 940.23 622.52"><defs><style>.cls-1{stroke:#ef7d04;stroke-miterlimit:10;stroke-width:4px;}</style></defs><title>Ресурс 2</title><g id="Слой_2" data-name="Слой 2"><g id="Слой_1-2" data-name="Слой 1"><path class="cls-1" d="M232.91,3a206.2,206.2,0,0,0-46,10.6c-16.4,5.8-25.3,10.7-36.3,20.1-3,2.6-10.5,8.1-16.6,12.2l-11.1,7.6-3.3,8.9c-1.8,5-5.5,14.8-8.2,22s-9,24.2-14.1,38c-13.6,37.1-25.2,63.2-33.1,75A216.9,216.9,0,0,1,44.61,221c-13.8,14.9-18,22.5-16.9,31.5.9,8.2,6.8,12.2,25.3,16.9,9.7,2.4,28.6,5.5,33.7,5.5,3.8,0,4,1.4,1.1,6.9-3.6,6.5-8.8,13.5-22.6,29.8-6.2,7.4-13.3,15.7-15.6,18.6-7.4,8.8-11,12.7-24.1,26.3-16.3,16.8-27.1,34.3-22.4,36.1a2,2,0,0,0,2.5-1.2c3.2-5.6,25.4-28.7,49.3-51.3,11.5-10.8,15.6-15.5,26.7-30.7,2.9-3.9,7.4-9.5,10.2-12.6,5.3-5.7,8.1-10.4,9.1-15.2.9-4.6.4-4.5,48.9-8.7,37.6-3.3,53.1-6.4,69.9-13.9,5.9-2.7,21.3-12.2,22.7-14,.6-.8,13.9-11.8,17.7-14.7,9.8-7.3,33.3-16.9,54.8-22.4,27.5-6.9,64-18.7,80.8-25.9a25.23,25.23,0,0,1,8.3-2.1c3.1,0,3.4.2,3.4,3.1,0,3.6-4.3,14.1-13.8,33.9-8.8,18.3-15.7,32.9-18.9,40-3.7,8.1-15,31.2-28,57.4-6.3,12.7-12.6,25.8-13.9,29-2.9,6.7-9.3,19.7-18.2,37-3.4,6.5-6.2,12.7-6.2,13.6,0,6.8,9.7,8.8,34.5,7.1,63.9-4.5,93.1-10.2,118.5-23.2,11.3-5.8,11.4-5.9,21-12.9,20.2-14.8,39.2-40.2,43.5-58.1,2-8.6,2-28.5-.1-38.4-2-9.7-7.7-25.1-13.9-37.5-7.7-15.3-16.2-25.7-35.1-43-9.3-8.4-17.3-15.8-17.9-16.4a111.59,111.59,0,0,0-10-7.1c-4.9-3.2-9.4-6.2-9.8-6.6-1.1-.8,1.2-5.4,7.4-14.5,9.1-13.6,15.9-25.5,17-29.9,1-3.8.9-4.9-.5-7-.9-1.4-2.5-2.5-3.6-2.5-7.5,0-16.7,10.1-28.7,31.5-2.6,4.7-5,8.5-5.3,8.5-.8,0-14-28.9-18.2-40-8.2-21.2-18.1-34.6-39.1-52.9-5.6-4.9-14.2-12.6-19.2-17.1-7.2-6.6-11.2-9.2-20-13.5-14.4-7-35.7-14-50.1-16.5C266.41,1.78,246.31,1.38,232.91,3Zm58.5,11.3a134,134,0,0,1,37.4,17c8.4,5.4,20.6,16.3,20.6,18.4,0,.5-7.3,1.2-16.2,1.6a268.06,268.06,0,0,0-26.8,2.5c-16.5,2.9-32.7,9.8-29.8,12.7.4.3,6.9-.6,14.5-2.1,16.7-3.2,38.2-4.3,52.6-2.6,10.9,1.3,27.1,6,31,9.1,2.3,1.9,10.9,15,17.2,26.4,3.3,5.9,17.1,36.4,19.2,42.4s.9,8.5-5.6,10.7c-7.4,2.4-9.2,1.8-11.2-3.5-1.6-4.4-1.7-4.5-6.6-4.8-4.5-.3-12.7,2-25.5,6.9-3.2,1.3-4.9,5.2-5.7,13.2-.6,5.6-.8,6.2-4.1,8-5.4,3-24.8,9-47.1,14.5-37,9.2-40.3,10-52.3,13.1a145.44,145.44,0,0,1-18.5,3.7l-6.7.7-4-7.9-3.9-7.9-7.3-.3c-8.9-.4-29.7,2.2-32.4,4-1.4.9-2.8,4.2-4.2,9.8l-2.1,8.5-9.5.8c-14.1,1.2-17-1.1-14.9-11.5.5-2.9,2.1-11.4,3.5-18.8s2.7-14.4,2.9-15.5,2-14.2,4-29,4-29.5,4.5-32.5,1.7-10.4,2.6-16.4c2.2-13.4,5.7-19.6,16-27.8,13.2-10.5,21.9-15.3,37-20.2,15.2-5.1,24.2-6.5,50.4-8,12.7-.8,23.4-1.7,23.8-2,1.4-1.4-2.4-2.4-13.7-3.7-19.8-2.3-34.1-1.3-55.9,3.7-19.7,4.6-38.4,14.7-56.6,30.8-1.6,1.4-3.9,2.6-5,2.6-3.4,0-17.7-5.3-17.3-6.4.5-1.7,11-9.8,21.6-16.9,30.9-20.6,53.1-26.8,95.1-26.3C279.11,11.48,281.91,11.78,291.41,14.28ZM148.41,67c10.2,1.9,9.9.3,4.6,28.1-2.5,13.4-5.7,31-7.1,39.3s-4,24-5.9,35-4.3,24.3-5.2,29.5-2.2,10.2-3,11c-2,2-13.2,1.9-30.4-.4-16.6-2.2-16-2.1-16-4.8,0-6.8,10.3-40.8,18.3-60.3,2.5-6.1,6.7-18,9.5-26.5,14.1-43.9,16.4-50.5,17.4-51.8C131.91,64.58,137,64.88,148.41,67Zm240.5,83c.4.5.4,2.2.1,3.5-.5,2-2.5,3.4-9.3,6.6-10.7,5-15.7,5.9-17.2,3-1.3-2.5.3-7.7,2.7-8.8,2.9-1.4,17.5-5.1,20.4-5.3C387.11,149,388.61,149.38,388.91,150Zm18.3,15.1c-.6,1.7-27.7,13.6-42.6,18.6-6.7,2.4-18.6,5.8-26.5,7.7s-18.3,4.6-23.2,6-10.8,3.1-13,3.6c-20.1,4.7-46.2,16.9-59,27.5-15.8,13.1-21.6,16-47.3,24.3-21.5,7-40.9,9.3-75.2,9.2-32.8-.1-47.6-1.8-66.3-7.6-8.3-2.6-12.7-5-12.7-6.9,0-2.1,23.2-31.9,25.6-33,.7-.2,3.9.4,7.3,1.4,14.6,4.6,60.3,8.2,77.9,6.2,5.9-.7,18.1-1.9,27.2-2.7,37.4-3.3,50.2-5.8,107.5-20.4,32.2-8.3,44.5-11.8,67.5-19.7C396,165.08,408.31,161.78,407.21,165.08Zm25.4,21.5c6.3,4.2,23,18.7,29.4,25.5,5.3,5.6,14,17.1,16,21.1a28.23,28.23,0,0,0,2.9,4.7c2.3,2.6,9.3,17.3,11.5,24,3.9,12.1,5.4,23.5,5.4,42,.1,15.9-.1,18-2.2,23.3-8.5,22-22.9,33.6-47.2,38.1-22.2,4.2-30.5,4.8-66.8,5.3-31.8.4-36.5.3-38.6-1.1-3.1-2-4-6-2.6-12,.8-3.8,17.2-41.4,24.3-56.1.8-1.7,4.1-8.6,7.2-15.5,4.4-9.5,48.9-98.4,51.2-102.3C424,182.08,427.21,183,432.61,186.58Zm-217.4,6.9c2.8,1.9,6.7,9.3,5.5,10.5-1.4,1.4-20.7,3.9-29.9,3.9h-8.5l.7-5.8a39.81,39.81,0,0,1,1-6.4c.6-.9,6.6-1.8,18.5-2.7,5.2-.5,9.6-.9,9.9-1A8.46,8.46,0,0,1,215.21,193.48Zm-141.3,12.3a1.28,1.28,0,0,1-1.7.5q-.9-.6.3-1.5C74.11,203.78,74.81,204.38,73.91,205.78Z"/><path class="cls-1" d="M292.91,84c-1.6.5-8.6,2.5-15.4,4.4s-12.6,3.6-12.8,3.8c-.6.6,1.6,5.7,2.4,5.7.5,0,4.7-1.1,9.6-2.4s8.7-2.2,8.7-1.9c0,.5-2.7,11.4-4.5,18.6-.7,2.6-.9,5-.4,5.2s3.1-.2,5.9-1.1c6.9-2.3,11.9-2.3,13.3-.2,1,1.5-1.5,14.9-5.8,30.8-.8,3-1.2,5.7-.7,6.2s3.2,0,6.2-.9c5.3-1.5,7.4-2.6,7.6-4.1,0-.4,1.3-5.9,2.9-12.2,5.6-22.8,2.7-30.2-11.2-28.6-2.9.3-5.3.4-5.3.1s1.4-5.8,3-12.2,3-11.7,3-11.9C299.41,82.68,296.21,83,292.91,84Z"/><path class="cls-1" d="M228.91,100.58c-9.6,2.9-15.5,9.6-17.4,19.7-3.9,21.4,16.3,46,37.8,45.8,13.9-.1,23.3-6.7,26.1-18.3,1.2-4.8,1.1-5.3-.6-6.6-3.8-2.8-4.7-1.9-5.9,5.2-1,5.7-6.7,11.1-12.7,12-12.5,1.9-24.6-8.9-30.7-27.2-5.5-16.4.9-27.3,15.4-26.1a18.68,18.68,0,0,1,10,3.6c4.3,3,4.3,3,6.2,1s1.7-2.1-1.5-4.8c-3.7-3.1-12.9-6-18.3-5.9A33.9,33.9,0,0,0,228.91,100.58Z"/><path class="cls-1" d="M600.41,153.48c-8.4,2.8-11.2,5.4-14.3,13.2s-1.6,21.1,2.9,25.3c2.1,2,3.8,2.4,10.3,2.7,9.2.5,13.7-1.1,17.3-5.9,4.2-5.6,6.1-13,5.6-22.1-.3-7.6-.5-8.1-3.6-10.9-2.9-2.6-3.9-2.9-10-2.8A55.75,55.75,0,0,0,600.41,153.48Z"/><path class="cls-1" d="M590.91,220.88c-8,2-13.2,5.5-16.7,11.2-2.3,3.6-8.8,22.4-14.4,41.9-2.5,8.9-6.3,20.9-8.4,26.7a369.14,369.14,0,0,0-16.5,64.4c-2,12.8-1.9,16.6.5,20.5,2.8,4.7,6.7,6.3,15,6.3,9.5,0,22.3-4.6,34.5-12.3,7.8-4.9,15.6-9.7,19-11.7a40.14,40.14,0,0,0,4.5-3c.3-.3,3-2.1,6-4a367.27,367.27,0,0,0,34.5-25.1c18-14.6,21.9-18.7,18.3-19-4.9-.4-8.1.9-14.4,6.1-1.7,1.4-4.2,3.3-5.5,4.2-2.5,1.8-3.2,2.3-11.4,8.7-2.7,2.1-10.6,7.5-17.5,12.1s-13.6,9-15,9.9c-10,6.8-26.3,13.1-33.7,13.1h-3.3l-.2-7.8c-.3-14.8,1-22,8.2-43.2,2.1-6.3,8.2-25.5,13.5-42.5s10.7-34.2,12-38.2c2.9-8.4,3.4-17.7.9-18.7C598.81,219.68,594.71,219.88,590.91,220.88Z"/><path class="cls-1" d="M308.71,226.58c-.3,1-2.8,6.5-5.5,12.2s-4.8,10.5-4.8,10.7-4.1,8.9-9.1,19.2c-8.8,18-14.6,30.3-17.4,36.7-.7,1.6-2.4,5.5-3.8,8.5-4.2,9.3-50.7,102.7-68.1,136.8-16.9,33.1-20.9,42.2-32.7,74.4-6,16.4-8.8,24.6-15.6,46.3a76.13,76.13,0,0,0-2.1,13.2c-.5,7.8-.3,8.7,2.7,14.8,3.7,7.4,10.3,13.8,19,18.1,12.1,6.2,26.9,3.1,54.6-11.1,22.1-11.4,38.1-21.4,61-38,7.8-5.7,14.6-9.8,15.1-9.2.2.2-1,3.5-2.7,7.3-6,13.1-9,23.4-9.6,32.6-.6,9.8.6,14.5,4.1,15.4,3.8.9,16.4-4.7,28.1-12.5,7.9-5.2,10.9-8.1,39-37.5,11-11.5,25.2-26.1,31.5-32.5,11.2-11.4,11.4-11.5,11.8-8.6a51.57,51.57,0,0,1-1.7,11c-1.9,8.2-10.7,38.5-13.5,46.5-2.3,6.8-3.7,17.8-3.4,26.1l.3,7.4,3.8.3c12.5,1,31.5-7.5,62.2-28.1,30.4-20.3,40.4-28.9,38-32.6-1.3-2.2-4.5-1-11.6,4.5-22.6,17.5-43.8,28.3-53,27.1-8-1.1-8.2,1.4,3.9-43.2,12.6-46.5,15.9-55.9,25-70.9,11.2-18.5,14-30.1,8.6-35.1-3.5-3.2-5.8-3.1-13.2.6-11.5,5.7-19,14.2-23.1,26-4.5,13.1-17.7,36.6-25.3,45-12.3,13.8-47.2,49.7-52,53.6-3.3,2.7-10.2,6.3-12.1,6.3a5.77,5.77,0,0,1-3.2-2c-1.7-1.8-1.7-2.6-.7-6.4a89.48,89.48,0,0,1,4-10.7c2.7-5.7,11.1-26.7,19.4-48.4,1.7-4.4,4.6-11.8,6.5-16.5,12.8-31.4,14.2-37.1,10.3-41-1.9-1.9-2.9-2.1-6.6-1.6-9.2,1.2-19.5,9.4-27.2,21.4-4,6.2-5.2,9-12.7,30.2-13.9,38.9-16,43.4-22.4,49-7.1,6.2-18.9,14.6-36.3,25.7-30,19.2-34.4,21.6-51.6,27.3-20,6.7-24.4,6.4-29.3-1.8-2.6-4.6-2.3-8.6,2-26.2,8.7-35.7,32-99.1,54.6-149,1.8-4.1,4.8-10.7,6.5-14.5,8.9-19.6,12.6-27.8,16.6-36.3,2.4-5.2,4.4-9.5,4.4-9.8s1.1-2.7,2.4-5.6c7.6-16.6,22.1-48.9,26.4-58.8,2.8-6.3,7.8-17.7,11.1-25.2,13.9-31.5,14.5-37.2,4.4-41.4C311.41,224.38,309.51,224.48,308.71,226.58Z"/><path class="cls-1" d="M195.91,337.58c0,39.1-.1,41.1-2.2,48.6a123.14,123.14,0,0,1-4.3,12.4l-2,4.6-8.5-.7c-12.2-.9-16.9-2.9-31.2-13.5-7.1-5.2-13-9.8-13.3-10.1-2.4-2.6-10.6-9-11.6-9-2.4,0-1.6,4.9,1.9,11.4,5.6,10.6,25.1,29.4,35.8,34.5,10,4.7,27.1,7.2,36.9,5.4l4.5-.8.6-6.5a113.58,113.58,0,0,1,2.5-13.5c2.5-9.6,2.6-55.5.1-71.6-2-12.9-7.3-31.9-9-31.9C196,296.88,195.91,315.18,195.91,337.58Z"/><path class="cls-1" d="M106.11,309c-2.6,2.6-3.8,5-4.7,9.4a71.26,71.26,0,0,1-2.7,8.9c-2.6,5.1-.1,5.2,6.7.2,7-5.1,17.2-8.7,30.4-10.5,8.6-1.2,9.6-1.6,9.6-3.5,0-2.8-13.1-6.3-27-7.3l-8.9-.6Z"/><path class="cls-1" d="M29,400.38c-4.9,2.5-9.8,4.5-11,4.5-3,0-6.6,2.7-6.6,5s6.4,12.8,11,18.2c2.7,3.2,3.5,3.6,5.2,2.7,5.7-3,17.6-28.8,15.1-32.7C41,395.28,38.31,395.68,29,400.38Z"/><path class="cls-1" d="M858.71,425.38c-9.9,2.8-17.9,7.2-32.8,18.4l-15,11.3-6.8-.6c-11.9-1.1-16.7,2.9-26,21.7-8.1,16.5-11.5,25.4-15.8,42.7-6.3,24.9-6.3,44.6,0,58.4,5.2,11.6,11.3,16.6,23.2,19.1a48.51,48.51,0,0,0,35.6-5.8l6.8-4.2,19-.2c17.2-.1,19.8-.4,27.9-2.8,10.9-3.2,22.7-9.1,37.2-18.8,21.7-14.4,26.6-18.4,26.2-21.1-.6-3.9-3.7-2.8-14.6,5-21.5,15.5-47.5,25.4-66.7,25.4h-6l8.1-8.3c16-16.4,31.9-37,36.5-47.7,1.1-2.5,2.7-5.9,3.4-7.5,1.8-4.1,8.1-26.6,9.4-33.9,4.1-22.4-3.3-40.8-19.6-48.8-5.7-2.8-7.8-3.3-15.7-3.5A52.42,52.42,0,0,0,858.71,425.38Zm3.2,24.9c4.9,2.1,10.7,8.6,12.8,14.2,2.8,7.8,3.1,16.6,1.2,31.4-2.1,17.2-6.7,31.5-15.3,48.3-9.5,18.7-17.6,26.2-29.6,27.4-11,1.1-19.7-7.3-24.7-23.7-2.1-6.9-2.2-8.6-1.6-26.9.7-22.7,1.7-27.5,8.4-40.6,7.8-15.4,13.2-22,21.4-26.4C843.61,449.08,855.21,447.58,861.91,450.28Zm-67.7,107.6c3.1,8.5,4.9,11.5,9.3,15.5s4.5,5.1.5,4.1c-3.7-.9-10.1-7.5-13.2-13.6-2.4-4.7-2.8-6.8-2.9-14.5-.1-5,.1-11.7.3-15,.5-6,.6-6,2.3,6C791.41,547,793.11,554.88,794.21,557.88Z"/><path class="cls-1" d="M701.81,431.38c-22,5.6-45.5,22.1-53.5,37.4-2.8,5.4-3.7,16.3-1.8,22.8,2.2,8,14.8,18.7,37.9,31.9,13.1,7.5,20.8,17.1,22.5,28,1.4,8.7-3.7,17.4-14.4,24.4-14,9.2-29,11.8-38.6,6.8-6.3-3.2-14.8-12.5-17.1-18.4-2.7-7.2-7.5-6.8-18.8,1.5-6.3,4.7-10.6,11.2-10.6,16.2,0,9.4,12.5,18.3,30.3,21.6,21.1,3.8,44.8-2.6,64.7-17.6,10.6-8,23.7-22.2,27.1-29.5,5.3-11.3,5.8-24,1.4-32.6-2.6-5-11.4-12.7-23-20.3-28.5-18.7-28.8-18.9-31.4-24.2-5-10.1-3.5-18.4,4.4-25.3,7.2-6.4,16-9.2,28.9-9.2,10.8,0,16.7,2.1,21.2,7.5,4.9,6,6.9,5.9,16.1-1.1,11.2-8.6,12.8-14,5.3-17.9C742.71,428.38,717.21,427.38,701.81,431.38Z"/><path class="cls-1" d="M577.41,433.48a124.77,124.77,0,0,0-36.5,12.6c-16.7,8.6-27.7,21.3-30.5,35.2a27.7,27.7,0,0,0,2.4,19.1c3.3,7,8.1,11.2,23.6,20.5,19,11.5,27,17.8,30.5,24.1,2.5,4.6,2.7,5.9,2.3,12.3-1.1,16.2-10.3,26-28.8,30.7-9.8,2.5-20.5,2.3-26.2-.5-6-2.9-13.3-10.8-15.4-16.6-2.4-6.7-4.4-8.6-7.6-6.9-6.6,3.5-18.1,14.7-21.2,20.6-2.8,5.5-1.7,9.7,3.9,14.6,3.5,3,13.3,7.7,19.8,9.4,8.1,2,26.9,1.2,38.2-1.7,26.6-6.8,53.4-29.1,62.2-51.6,2.1-5.5,2.7-8.7,2.7-15.4.1-7.6-.2-9-2.8-13.4-4.5-7.7-11.5-13.6-23.8-20-12.5-6.5-20.9-12.1-28-18.7-8.2-7.8-8.6-15.9-1.3-26,5.9-8.2,20.5-14.4,31.9-13.7,5.8.3,7.2.9,13.5,5.2,6.1,4.2,7.7,4.9,13.3,5.3,5.3.4,7,.1,10.7-1.9,5.7-3.1,10.4-8.8,10.4-12.8s-.8-4.7-8.9-7.7c-5.8-2.2-8.8-2.6-19.4-2.9C585.51,433.18,578.81,433.28,577.41,433.48Z"/><path class="cls-1" d="M119.91,453.48c-1.1.3-8.7,2.8-17,5.6-13.1,4.4-16.3,5.1-25.5,5.5s-11.9.2-21-2.1c-10.7-2.7-13-2.4-11.1,1.2,3.8,7.1,12.5,10.1,31.6,10.9,15.6.7,22.7-.4,41.3-5.8,11.5-3.3,15.1-3.2,17.6.6,4.1,6.2-.9,20.3-9.1,25.6-3.3,2.2-4.7,1.6-8.2-3.5-4.6-6.6-14-15.8-15.9-15.4-1.3.2-1.8,1.6-2,5.5-.4,6.5-2.5,8.3-9.7,8.3-2.7,0-5.7.6-6.6,1.3-4.8,3.6-6.3,14-3.2,21.9,2,5.4,11.1,19.4,14.8,23,3.1,3.1,6.5,3.7,6.5,1.1,0-.9-1.8-4.4-4-7.7-8.6-13.3-8.8-30.2-.2-22.4,4.4,4,16.4,12.5,20.4,14.4,3.6,1.7,3.7,1.7,9.2-1,6.1-3,12.6-9.6,16.1-16.6,7.3-14.4,10.1-26.8,7.6-34.2-1.4-4.3-8.3-11.8-13.1-14.3C134.91,453.58,123.91,452.48,119.91,453.48Z"/></g></g></svg>