<svg id="Слой_1" data-name="Слой 1" xmlns="http://www.w3.org/2000/svg" viewBox="0 0 1314.78 731.51"><defs><style>.cls-1{fill:#fff;}</style></defs><title>WhatsApp-Image-2022-02-16-at-12.55.46</title><path class="cls-1" d="M641.38,1.32c-8,2.8-17.7,14.4-35.6,42.6-6.1,9.6-11.5,17.7-11.8,18.1-.9.9-24.6-8.4-35.7-13.9-8.5-4.3-26.1-11.2-41.1-16.1-19.5-6.4-35.8-8.2-75.4-8.2-29.4,0-65.4,2-78.5,4.4-19.4,3.5-28.7,6.4-45.8,14.5-6,2.8-11.3,4.8-11.8,4.5-2.9-1.8,1.5-13,11-27.9,2.8-4.4,5-8.7,4.8-9.5-.2-1.2-1.7-1.4-7.2-1.2-12.5.5-41.1,11.8-56.6,22.3-6.8,4.6-17.1,15.7-21.7,23.2a127.27,127.27,0,0,0-6.7,13.3c-1.9,4.3-3.8,8-4.3,8.2-1,.3-9.4-9.9-13.4-16.3-6.4-10.3-12.1-22.5-20.8-44.3a74.79,74.79,0,0,0-3.5-8c-.2.2-1,4.1-2,8.8-2.3,11.7-3,43.8-1.6,68.6,1.3,22.3,3,34.7,6.2,44.4,2.3,7.1,11.4,25.4,13.6,27.1s1.7-7.8-1.2-26.9c-3.4-22.7-4.6-37.2-3.6-42.1.1-.2,1.8,1.8,3.8,4.5,6.1,8,9.4,11.3,16.4,16.4,7.8,5.7,12.9,8.4,18.7,9.9,8.5,2.3,9.8.1,11.2-19.1,1.7-23.6,6-33.6,20.9-49.1,5.2-5.3,10-9.7,10.8-9.7,1,0,1.3,2.4,1.3,10.8,0,15.9,5.2,34,10.1,35,.9.2,12.7-5.3,26.3-12.2,41.9-21.4,60.8-25.6,112.9-25.6,38.8,0,70.9,5.2,97.5,15.6,14.1,5.5,35.2,16.5,39.3,20.4l4.1,3.9-.4,6.8c-.6,9-2.4,13.3-25.8,61.3-36.7,75.1-56.5,117.1-79.5,169-15.9,35.8-30.9,66.5-38.1,78s-9.1,15.7-7.6,17.2c2.1,2.1,10.9,2.7,41.7,2.7,60.8.1,109-2.5,126.3-7,67.2-17.3,114.8-52.9,139.3-104.3,6.1-12.7,7.9-20.7,7.9-35.1,0-45.7-12-84-37.8-120.5-14.2-20-55-59.9-74.7-73.2-3.6-2.3-6.8-5.3-7.1-6.5-1-3.6,2.2-9.6,21.8-40.5,6.1-9.7,13.4-24.3,14.3-28.5.5-2.5.2-3.6-1.4-5.2C648.48-.48,646.78-.58,641.38,1.32Zm-40,113.4c11.2,7.5,35.3,30.3,48.2,45.6,20.3,24,36.7,56.5,41.6,82.1,4.3,22.6,4.6,61.4.6,77.1-2.5,9.9-9.5,24.1-15.4,31.5-14,17.5-36.1,29.1-60.7,31.8-22.3,2.5-144.6,2.7-147.1.2-.4-.4,1.1-5.5,3.3-11.2s5.1-13.4,6.4-17c8.9-25,38.7-93.1,68-155.5,6.4-13.6,33-66.7,36.2-72.4,5.1-8.8,10.4-16.1,11.7-16.1C595,110.82,598.18,112.62,601.38,114.72Z" transform="translate(0 0)"/><path class="cls-1" d="M850.48,76.82c-12.5,3.2-20.7,13-23.1,27.6-1,5.5,1,19,3.2,22.8a18.6,18.6,0,0,0,6.2,5.4c9.1,4.7,23.6.5,33.4-9.8,7-7.4,8-10.8,7.3-26.5-.5-13.1-1.6-16.7-5.4-18.4C868.58,76.32,855.18,75.72,850.48,76.82Z" transform="translate(0 0)"/><path class="cls-1" d="M438.38,157.22c-4.7,4.9-10,14.3-23.3,41.1-10.8,21.9-15.5,31.6-25.6,53.5-11.8,25.5-31.1,65.1-82.9,170.5C264,508.82,250.68,537,235.68,572c-23.6,55.4-35.3,104.8-30.6,129.3,3.3,17.3,7.3,23.4,16.7,25.4,17.1,3.7,42.7-1.7,77-16.1,21.6-9.1,48.6-24.2,79-44.2,22.4-14.8,31.6-20.3,32.5-19.4.3.3-2.5,10.2-6.4,21.9-10.2,31.5-12,41.5-8.6,49.4,1.8,4.3,4.3,5.4,10.8,4.4,15.5-2.5,29.7-13.4,94.2-72.8,11-10.2,22-20.3,24.5-22.6,8.8-8,27.3-23.5,28.1-23.5a.9.9,0,0,1,.9.9h0c0,1.7-5.7,23.1-10,37.6-16.6,55.9-21.1,79.1-16.7,85.9,1.6,2.3,2.4,2.6,7.5,2.6,10.4,0,24.2-4.7,49.5-16.9,32.8-15.8,72.3-39.4,84.1-50.5,3.4-3.1,4.6-5,4.6-7.1,0-5.3-4.6-3.3-34.5,14.9-13.9,8.5-34.7,18.8-44.7,22.1-14.3,4.7-20.8,2.8-20.8-6.1,0-12.8,18-72.7,35.7-118.9,6.4-16.7,9-22.3,19.1-41.7,7.1-13.9,10.4-23,11-30.8.6-8.4-1.3-11-8.1-11-18,0-33.3,12.3-45.6,36.9-2.3,4.5-5.5,11.8-7.1,16.1-8.2,22.2-16.6,33-56.5,72.7-32.2,32.1-50,47.1-61.7,52.3-5.5,2.4-7.8,1.8-7.8-1.9,0-5.3,9.4-30.5,38.5-103.6,15.8-39.7,19.5-50.9,19.8-60.2.2-7.4-1.7-10.3-6.9-10.3-7.2,0-21.6,7.7-30.1,16.2-8.4,8.2-18.2,29.5-34.6,75.3-2.6,7.1-7.1,19.3-10,27l-5.3,13.9-20.4,14.4c-50,35-85.3,53.9-117.3,62.7-10.2,2.8-23.4,3.4-27.7,1.2-1.4-.6-3.6-3.5-5-6.2-2.3-4.7-2.5-5.9-2.4-19,.2-14.6.3-15.1,7.1-41,4.4-16.3,8.8-28.6,25.3-69.9,26.5-66.4,34.4-85.2,57.5-136.1,4.2-9.4,10.8-24,14.5-32.5,7.2-16.6,21.6-48.9,25.7-58,29.3-64.8,68.3-160.6,69.9-171.6.6-3.6.3-4.3-2.6-6.7C443.68,153,442.18,153.12,438.38,157.22Z" transform="translate(0 0)"/><path class="cls-1" d="M832.88,174.32c-12.3,3.5-21.2,8.8-24.2,14.7-6.5,12.7-35.8,97.2-49.4,142.5-5.3,17.9-12,44.1-13.4,53.3-1.6,9.6-1.4,25.4.3,29.5,2.9,6.8,15.5,10.6,27.4,8.1,25.7-5.3,90.1-39.8,128.1-68.5,4.2-3.1,13.7-9.9,21.1-15.1s14.5-10.2,15.8-11.3c2.8-2.6,3-8.5.3-11.8l-1.8-2.3-3.1,2a78.18,78.18,0,0,0-8.4,6.9c-17.9,17-63.3,45.9-97.8,62.4-14.7,6.9-20.7,9.1-27.6,9.8-6.7.7-10.2-2-11.5-9.1-2.2-12.1,4-33.8,42-145.8,9.4-27.6,15.2-46.2,18-58.2,1-4.1,1-5.2-.2-6.4C846.38,172.92,839.08,172.62,832.88,174.32Z" transform="translate(0 0)"/><path class="cls-1" d="M172.78,195.82c-23.7,14.2-41.6,32.1-61.2,61-11.6,17-36.2,46.8-56.2,68-12.1,12.8-29.8,33-39,44.4-8.9,11.2-17.3,24.2-16.3,25.2.3.4,5.2-4.3,10.9-10.2a595.33,595.33,0,0,1,65.1-60c21.5-17.4,30.6-27.7,40.8-46.9,15.1-28.5,26.4-43.7,55.3-74.9,5.4-5.8,9.7-10.9,9.4-11.1S177.38,193,172.78,195.82Z" transform="translate(0 0)"/><path class="cls-1" d="M268.38,282.92c-.3,1.3-.7,22.9-1,47.9-.7,57.4-1.8,66.3-10.1,84.5-3.8,8.5-6.8,11-11.7,10-18.5-3.7-39.6-15.5-61.2-34.4-12.1-10.6-18.9-16.1-19.8-16.1-5.2-.1,12,27.7,25.7,41.6,19.1,19.3,45,30.4,71,30.4h11.3l.6-2.8c2.6-12.4,5.8-36.7,6.7-50.7,2.2-34.2-1.4-86.7-7.2-104.5C270.18,281.12,269.08,279.62,268.38,282.92Z" transform="translate(0 0)"/><path class="cls-1" d="M149.08,283.72a15.36,15.36,0,0,0-4.8,2.1c-2.7,2.3-8.9,17-10.9,26.3-1.1,4.6,1.7,4.3,9.6-1,12.1-8,23.6-12.4,36.5-13.8,8.7-1,16.3-2.5,16.3-3.4,0-1.2-12.4-5.9-21.2-8.1C165.38,283.52,153.58,282.62,149.08,283.72Z" transform="translate(0 0)"/><path class="cls-1" d="M44.28,410.32c-.5.2-6.2,2-12.5,4-11.2,3.7-21,7.9-21,9.2s8.5,17.2,12.1,22.5c5.8,8.4,8.8,8.7,14,1.2,5.4-7.9,14.9-30.8,14.9-36C51.78,409.92,47.18,409.32,44.28,410.32Z" transform="translate(0 0)"/><path class="cls-1" d="M1008.78,487.42c-30.9,3.6-53.2,10.9-73.7,24-7.6,4.9-20.3,17.3-24.2,23.8-6.1,10.1-8.1,17.4-8.1,28.9.1,18.8,4.2,23.4,44.5,50.5,33.8,22.7,41.4,32.7,38.5,50.9-1.6,9.6-5.7,16.9-13.8,24.4a67,67,0,0,1-48.7,17.7c-12-.6-16.6-2.3-25.3-9.1-7.9-6.2-14.3-15.4-15.3-22-.9-5.7-2.3-7.7-5.3-7.7s-11,4-19.1,9.5c-16.5,11.2-19.5,17.2-13.9,28.3,8.6,17.3,37.1,27.2,70.6,24.3a163.35,163.35,0,0,0,20.3-3.1c13.4-3.4,31.4-11.9,43.5-20.6,8.6-6.1,9.9-7.2,19.6-16.9,10.4-10.4,18.1-21.5,22.6-33,2.8-7.1,3.2-9.2,3.2-18,.1-9.1-.2-10.5-2.8-15.9-5-10.3-16.5-20.4-45.6-40.1-24.4-16.6-29.8-21.2-34-29.5-3.8-7.5-1.8-19.6,4.6-27.4,8.8-10.6,29.3-19.6,44.9-19.6,12.2,0,30.8,6.9,35.9,13.3,1.5,1.7,3.1,3.8,3.7,4.4,1.9,2.4,6.5,1.3,13-2.8,7.3-4.8,19.3-16.4,20.1-19.6,2.1-8.3-12.6-13.8-39.5-14.7C1017.78,487.22,1010.68,487.22,1008.78,487.42Z" transform="translate(0 0)"/><path class="cls-1" d="M1225.78,487.42c-1.4.2-5.9.9-10,1.5-16.6,2.5-32.7,9.6-47.8,21.2-19.9,15.3-22.9,16.7-37.1,16.7-9.6,0-14.3,1.6-20.3,6.9-12.3,10.7-32.5,52.4-42.3,87.1-5.3,18.8-7,30.5-6.9,47.5.1,18.1,1.5,26,6.6,36.4,5.5,11.4,14.6,18.4,27.3,21.2,9.4,2,28.5,1.5,37.5-1.1,15.9-4.5,25.6-6.1,64.5-10.5,20.3-2.4,35.6-6.4,51.5-13.8,25.3-11.6,66-38.4,66-43.3,0-1.9-4.3-1.8-8.3.2-1.8.9-7.1,4-11.8,7-24.7,15.1-57.6,28.9-79.7,33.3-11.1,2.2-27.2,3.7-27.2,2.5,0-.4,8.9-9.8,19.8-20.8s22.8-23.9,26.5-28.6c20.6-25.8,35.8-55.1,42.4-81.8,2.3-9.2,2.7-12.8,2.7-25.7,0-13.8-.2-15.6-2.7-22.9-3.9-11-6.7-15.4-15.2-23.5-5.7-5.4-8.6-7.3-12.6-8.5C1243.88,486.92,1232.38,486.52,1225.78,487.42Zm-9.3,33.9c7.5,3.2,12.8,10.3,16,21.5,1.5,5.4,1.8,10.3,1.8,28,0,20.9-.1,21.7-2.8,29.5-1.5,4.4-3.7,11.4-4.9,15.5-4.2,14.8-18.9,40.4-33.1,57.8-15.9,19.6-32.9,27.2-43.9,19.6-17.4-12.1-27.1-41.3-23.8-71.8,2.4-23.2,10.5-48.8,20.6-65.8,6.3-10.5,19.7-24.2,27.9-28.5C1189.48,519.32,1206.08,517,1216.48,521.32Zm-109.6,104.1c1,2.8.4,6.4-1.2,6.4-.5,0-.9-2-.9-4.5C1104.78,622.22,1105.38,621.62,1106.88,625.42Zm-.9,20.5c1.4,18.5,8.9,37.9,19.1,49.6,5.6,6.5,6.1,8.8,1.7,7.9-6.7-1.3-16.3-10.1-20.8-19.1a66.1,66.1,0,0,1-3.7-12c-2.1-10.1-2.5-30.1-.7-33.3C1103.88,634.92,1105.28,637,1106,645.92Z" transform="translate(0 0)"/><path class="cls-1" d="M800.28,488.52c-34.4,5.3-62.6,18.8-81.4,38.9a69.09,69.09,0,0,0-11.4,16.2c-4.1,8.3-4.2,8.8-4.2,18.6,0,9.2.2,10.5,2.7,14.8,6.4,10.7,19.3,22.2,41.2,36.5s23.8,15.6,29.2,20.6c9.3,8.5,12.9,20.1,10.4,33.6-2.6,14.7-11.3,24.6-28.3,32.7-11.6,5.5-22.4,7.8-33.7,7.1-20-1.1-29.8-8.2-42.4-31-4.2-7.5-5.2-8-12.3-4.7-9.5,4.3-21.2,14-24.4,20.2-2.8,5.4-2.5,12.6.6,17.2,3.8,5.6,7.2,8.2,17,13.1,10.5,5.2,16.8,7,31,8.6,26.6,3.1,62.3-6.4,87.4-23.3,18.7-12.7,36.9-36.3,43.6-56.7,2.3-7.2,1.7-19.6-1.3-26.5-4-8.8-16-19.6-40.2-36.1-28.1-19.1-40.4-29.6-42.1-35.8-1.6-5.9-.6-15.4,2.1-20.7,5.4-10.5,20.2-20.4,35.2-23.4a60,60,0,0,1,28.9.5c11.1,2.8,15.4,5.1,21.6,11.5,3.7,3.9,5.9,5.4,7.8,5.4,5,0,25.2-15.5,28.5-21.8,1.6-3.2-.7-6.5-6.8-9.6-8.7-4.3-18.1-5.9-37.7-6.2C811.38,488.12,802,488.22,800.28,488.52Z" transform="translate(0 0)"/><path class="cls-1" d="M161.28,492.72c-27.5,7.7-44.5,11-60.5,11.7-11,.5-13.9.3-24.3-2-18.8-4.1-23-3.2-14.8,3.3,11.1,8.8,24.3,11.5,51.6,10.8,15.5-.4,22.2-1.1,36-3.7,9.4-1.7,20.4-3.4,24.5-3.7,7.2-.5,7.6-.4,10,2.2,2.2,2.3,2.5,3.5,2.5,9.8-.1,5.9-.6,8.4-3.2,13.8-4.4,9.4-11.5,15.9-17.4,15.9-3,0-9-6.1-19.6-19.7-6.4-8.3-9.9-12-10.3-11.1a33.69,33.69,0,0,0-1.4,7.1c-1.1,9.9-4.1,13.7-10.8,13.7-11.3,0-18.1,6.9-18.1,18.5-.1,11.2,6.2,24.5,18.8,40.3q14.7,18.15,4.2-3.4a149.38,149.38,0,0,1-6.6-15.6c-2.5-7.4-3.2-17.1-1.4-18.9s6.2-1.3,9.6,1.5c13.3,10.8,31.3,21.6,36,21.6,3.1,0,13.4-6.7,17.1-11.1,9.2-11,17.7-28,20.3-40.8s-.3-24.5-8.4-32.3c-5.9-5.7-12.3-8.1-22.3-8.4A59,59,0,0,0,161.28,492.72Z" transform="translate(0 0)"/></svg>