<svg xmlns="http://www.w3.org/2000/svg" viewBox="0 0 880 704.88"><title>Ресурс 1</title><g id="Слой_2" data-name="Слой 2"><g id="Слой_1-2" data-name="Слой 1"><path d="M433.5,5.7c-3.3,3.2-15.9,15.2-28,26.8-48.7,46.7-79.6,76-80.5,76.3-.4.2-13.8-12.8-29.6-28.8s-29.1-28.9-29.5-28.8c-.8.3-84.1,81.1-114.9,111.4-10.2,10.1-19.7,19.2-21.2,20.4l-2.8,2.1V479l-63.2.2-63.3.3L.2,499.2,0,519H160V199.5l46.1-43c25.4-23.7,49.1-45.8,52.8-49.2A93.42,93.42,0,0,1,266,101c.5,0,25.4,25.9,29.6,30.9l2.6,3.1-14.4,13.8c-7.8,7.6-20.9,20.1-29,27.7l-14.7,14L240,354.7V519h40V199.5L300.5,179l20.6-20.5,7.7,8c14.2,14.8,44.8,47,47.9,50.4l3,3.5,2.7-2.2c1.5-1.1,8-7.1,14.3-13.2l11.6-11.2-30.1-30.1C361.6,147.1,348,133,348,132.5s20.7-21.7,45.9-46.9c36.3-36.3,46.2-45.7,47.3-44.8,5.4,4.5,91.7,91.6,91.2,92.1-6,5.8-59,60.5-59.2,61-.3.8,26,26.1,27,26.1.3,0,9-8.9,19.3-19.8,39.2-41.1,39.6-41.4,41.3-40,.9.7,10,9.8,20.4,20.3l18.8,19V519h40V190.3l-19.2-18.4c-10.6-10.1-23.5-22.4-28.6-27.3s-9.1-9.5-9-10.2,7.2-8.5,15.6-17.3L614.2,101l2.6,2.1c1.5,1.1,5.6,4.8,9.2,8.3s16.4,15.4,28.5,26.6,31.8,29.6,43.8,40.8L720,199.2V519H880V479H753V185.3l-30.7-29.8c-17-16.4-39.3-38.2-49.8-48.4S644.8,80,634.1,69.7L614.7,50.9l-29.1,29c-16,16-29.5,29.1-29.9,29.1S529.3,84.5,498,54.5,440.7,0,440.3,0,436.8,2.6,433.5,5.7Z"/><path d="M360.7,279.7c-.4.3-.7,54.3-.7,120V519h40l.2-99.8.3-99.7,39.8-.3L480,319V519h40V279H440.7C397,279,361,279.3,360.7,279.7Z"/><path d="M59,607.7c-20.6,2.2-35.2,10.1-41.7,22.7-5.1,10-6.7,26-3.8,39.6,3.7,17.5,14.5,27.8,34.1,32.7,10.1,2.5,37.1,2.4,47.9-.1,14.5-3.3,25.5-10.8,30.4-20.5,2.5-4.7,5.1-14.3,5.1-18.3V661H95.2l-.6,2.4c-1.1,4.6-5.5,8.5-11.3,10.2-7.5,2.2-21.2,1.6-26.8-1.1-12.4-6.1-12.5-26.4-.3-32.8,4.8-2.4,17.5-3.4,24.7-1.8,6.6,1.4,10.6,4.1,13.1,9l1.9,3.8,17.3-.1,17.3-.1-.2-5.1c-.6-15.5-12.5-29.4-29.1-34.3C89.3,607.6,72.6,606.2,59,607.7Z"/><path d="M653.5,608.4c-19.1,3.1-30,9.5-36.2,21.3-9.6,18.3-7.3,46.4,5.1,60,7.7,8.6,23.1,14,42.6,15,26.1,1.3,45.9-4.6,56.2-16.6,9.9-11.6,12.6-36.3,5.8-54.3-4.4-11.8-16.6-20.9-32.5-24.3C684.5,607.3,663.2,606.8,653.5,608.4Zm33,31.6c6.7,3.4,8.9,7.4,8.9,16,0,8.2-2.3,12.5-8.5,16-4,2.3-5.5,2.5-15.9,2.5s-11.9-.2-15.9-2.5c-5.9-3.3-8.1-7.7-8.1-15.8,0-14.2,7.2-19.5,25.5-18.9C679.7,637.5,682.5,638.1,686.5,640Z"/><path d="M380.2,656.2l.3,47.3h47c51.2,0,51.6,0,60.1-5.8,7.2-4.8,9.9-10.8,9.9-21.7,0-9.8-1.8-14-8.5-21.2l-4.1-4.2,3.2-6.2c2.9-5.7,3.1-6.9,2.8-14.1-.5-9.9-3.3-14.8-10.6-18.4l-4.8-2.4-47.8-.3-47.7-.3Zm74.6-23c1.9,1.9,1.5,6.6-.7,7.8-1.2.6-9.5,1-20,1H416V632h18.8C448.1,632,454,632.4,454.8,633.2Zm7,36c1.9,1.9,1.4,5.5-1,7.2-1.9,1.3-5.9,1.6-23.5,1.6H416V668h22.3C454.3,668,460.9,668.3,461.8,669.2Z"/><path d="M507,656.5V704l48.6-.2,48.6-.3V689l-.1-14.5-31.1-.3-31-.2V609H507Z"/><path d="M739.2,656.2l.3,47.3H757c14.8,0,17.5-.2,17.6-1.5.1-.8.2-5,.3-9.2l.1-7.6,6.7-5.6c3.7-3.1,7.1-5.5,7.4-5.4s7.5,6.9,15.9,15L820.2,704h23.9c13.1,0,23.9-.2,23.9-.4s-10.7-10.2-23.7-22.1-25.3-23.3-27.1-25l-3.4-3.2,26.6-21.8c14.6-12,26.6-21.9,26.6-22.1s-11.1-.4-24.7-.4l-24.8.1-21,17.9c-11.5,9.8-21.1,17.7-21.3,17.5s-.3-8.3-.2-17.9l.1-17.6H739Z"/><path d="M201,657.5V671H309V644H201Z"/></g></g></svg>