<svg xmlns="http://www.w3.org/2000/svg" xmlns:xlink="http://www.w3.org/1999/xlink" viewBox="0 0 587.83 317.18"><defs><style>.cls-1{fill:url(#Безымянный_градиент_24);}.cls-2{fill:#c40c21;}.cls-3{fill:url(#Безымянный_градиент_32);}.cls-4{fill:url(#Безымянный_градиент_35);}.cls-5{fill:url(#Безымянный_градиент_26);}.cls-6{fill:#c30e23;}.cls-7{fill:#080808;}.cls-8{fill:url(#Безымянный_градиент_39);}.cls-9{fill:url(#Безымянный_градиент_20);}.cls-10{fill:url(#Безымянный_градиент_17);}.cls-11{fill:url(#Безымянный_градиент_13);}.cls-12{fill:#0f0f0f;}.cls-13{fill:#0d0d0d;}.cls-14{fill:url(#Безымянный_градиент_9);}</style><linearGradient id="Безымянный_градиент_24" x1="39.58" y1="198.29" x2="306.09" y2="53.77" gradientUnits="userSpaceOnUse"><stop offset="0" stop-color="#959696"/><stop offset="0.18" stop-color="#838484"/><stop offset="0.53" stop-color="#555"/><stop offset="1" stop-color="#0d0d0d"/></linearGradient><linearGradient id="Безымянный_градиент_32" x1="271.66" y1="155.92" x2="271.66" y2="316.5" gradientUnits="userSpaceOnUse"><stop offset="0" stop-color="#be2335"/><stop offset="0.14" stop-color="#b83a48"/><stop offset="0.39" stop-color="#ae5e67"/><stop offset="0.62" stop-color="#a7787e"/><stop offset="0.84" stop-color="#a3888b"/><stop offset="1" stop-color="#a18e90"/></linearGradient><linearGradient id="Безымянный_градиент_35" x1="429.04" y1="157.84" x2="428.36" y2="273.22" gradientUnits="userSpaceOnUse"><stop offset="0" stop-color="#be2335"/><stop offset="0.16" stop-color="#b63f4d"/><stop offset="0.36" stop-color="#af5963"/><stop offset="0.56" stop-color="#aa6b73"/><stop offset="0.77" stop-color="#a7767d"/><stop offset="1" stop-color="#a67a80"/></linearGradient><linearGradient id="Безымянный_градиент_26" x1="571.68" y1="158.12" x2="359.56" y2="38.46" gradientUnits="userSpaceOnUse"><stop offset="0" stop-color="#4b4c4c"/><stop offset="0.08" stop-color="#454646"/><stop offset="0.69" stop-color="#1d1d1d"/><stop offset="1" stop-color="#0d0d0d"/></linearGradient><linearGradient id="Безымянный_градиент_39" x1="545.18" y1="246.96" x2="545.14" y2="363.1" gradientUnits="userSpaceOnUse"><stop offset="0" stop-color="#232323"/><stop offset="0.09" stop-color="#2b2b2b"/><stop offset="0.24" stop-color="#414141"/><stop offset="0.43" stop-color="#666"/><stop offset="0.64" stop-color="#989898"/><stop offset="0.87" stop-color="#d8d8d8"/><stop offset="1" stop-color="#fff"/></linearGradient><linearGradient id="Безымянный_градиент_20" x1="461.51" y1="271.43" x2="461.47" y2="387.56" gradientUnits="userSpaceOnUse"><stop offset="0" stop-color="#232323"/><stop offset="0.03" stop-color="#2f2f2f"/><stop offset="0.13" stop-color="#4d4e4e"/><stop offset="0.25" stop-color="#666767"/><stop offset="0.37" stop-color="#7a7b7b"/><stop offset="0.51" stop-color="#888989"/><stop offset="0.69" stop-color="#909191"/><stop offset="1" stop-color="#929393"/></linearGradient><linearGradient id="Безымянный_градиент_17" x1="325.7" y1="262.72" x2="325.66" y2="378.93" gradientUnits="userSpaceOnUse"><stop offset="0" stop-color="#252626"/><stop offset="0.21" stop-color="#4f5050"/><stop offset="0.69" stop-color="#b8b9b9"/><stop offset="1" stop-color="#fff"/></linearGradient><linearGradient id="Безымянный_градиент_13" x1="186.61" y1="260.94" x2="186.56" y2="377.1" gradientUnits="userSpaceOnUse"><stop offset="0" stop-color="#232323"/><stop offset="0.11" stop-color="#343434"/><stop offset="0.34" stop-color="#616161"/><stop offset="0.65" stop-color="#a8a8a8"/><stop offset="1" stop-color="#fff"/></linearGradient><linearGradient id="Безымянный_градиент_9" x1="60.22" y1="243.82" x2="60.17" y2="359.98" gradientUnits="userSpaceOnUse"><stop offset="0" stop-color="#232424"/><stop offset="0.11" stop-color="#282929"/><stop offset="0.24" stop-color="#383939"/><stop offset="0.39" stop-color="#525353"/><stop offset="0.56" stop-color="#777"/><stop offset="0.73" stop-color="#a5a6a6"/><stop offset="0.9" stop-color="#ddd"/><stop offset="1" stop-color="#fff"/></linearGradient></defs><title>Ресурс 1</title><g id="Слой_2" data-name="Слой 2"><g id="Слой_1-2" data-name="Слой 1"><polygon class="cls-1" points="50.99 158.59 21.46 239.32 345.73 65.79 345.73 0 50.99 158.59"/><polygon class="cls-2" points="181.27 102.89 188.84 139.47 245.56 139.47 236.43 102.89 181.27 102.89"/><polygon class="cls-3" points="191.37 153.85 213.41 254.34 221.41 234.66 284.61 235.17 351.95 153.85 280.46 153.85 256.12 189.07 248.35 153.85 191.37 153.85"/><polygon class="cls-4" points="419.81 153.85 483.52 153.85 433.79 214.45 502.69 214.45 494.92 234.66 373.7 234.66 354.54 245.53 363.86 220.15 419.81 153.85"/><polygon class="cls-5" points="585.05 195.29 345.73 65.79 345.73 0 585.05 130.54 585.05 195.29"/><polygon class="cls-6" points="306.36 102.89 291.6 139.34 495.95 139.34 511.1 102.89 306.36 102.89"/><polygon class="cls-7" points="546.72 234.66 538.43 254.34 579.87 254.34 587.83 234.66 546.72 234.66"/><polygon class="cls-8" points="535.32 262.11 513.05 317.18 555 317.18 577.28 262.11 535.32 262.11"/><polygon class="cls-9" points="491.81 262.11 470.57 317.18 431.2 317.18 452.96 262.11 491.81 262.11"/><polygon class="cls-10" points="305.85 267.29 330.19 283.87 360.75 267.29 340.03 317.18 383.03 317.18 405.82 262.11 268.03 262.11 245.56 317.18 285.64 317.18 305.85 267.29"/><path class="cls-11" d="M248.87,262.11H209.5l-15,36.41h-29s-4.71-2-1.65-6.42,12.57-30,12.57-30H137.88l-13.34,33s-4.4,17.55,27.2,22.05h74.85Z"/><polygon class="cls-12" points="221.41 234.66 319.83 234.66 343.92 250.97 373.7 234.66 536.88 234.66 529.11 254.34 213.41 254.34 221.41 234.66"/><polygon class="cls-13" points="91.13 234.66 187.74 234.66 179.71 254.34 83.62 254.34 91.13 234.66"/><path class="cls-14" d="M120.4,262.11s-11.27,45.07-36.26,49.73c0,0-15.15,5.34-27.19,5.34H26.64S-.59,315.2,0,303.55c0,0,2.8-11.27,6.43-17.87l30.17-.13-3.49,10.62s0,2.59,3.88,2.72,24.74.26,24.74.26,4.92-2.08,5.7-4.15S81,262.11,81,262.11Z"/></g></g></svg>